<?xml version="1.0" standalone="no"?>
<!DOCTYPE svg PUBLIC "-//W3C//DTD SVG 20010904//EN"
 "http://www.w3.org/TR/2001/REC-SVG-20010904/DTD/svg10.dtd">
<svg version="1.0" xmlns="http://www.w3.org/2000/svg"
 width="500.000000pt" height="500.000000pt" viewBox="0 0 500.000000 500.000000"
 preserveAspectRatio="xMidYMid meet">
<metadata>
Created by potrace 1.14, written by Peter Selinger 2001-2017
</metadata>
<g transform="translate(0.000000,500.000000) scale(0.100000,-0.100000)"
fill="#000000" stroke="none">
<path d="M1460 3395 l0 -25 233 2 232 3 3 23 3 22 -235 0 -236 0 0 -25z"/>
<path d="M1979 3393 c0 -15 -1 -174 -1 -353 l-1 -325 27 -3 c25 -3 27 -1 23
27 -3 17 -1 33 4 37 5 3 9 -11 9 -30 0 -31 3 -36 23 -36 20 0 24 5 22 30 -1
17 2 30 7 30 5 0 8 -12 6 -27 -3 -24 1 -28 26 -31 27 -3 28 -2 24 27 -3 17 -1
31 4 31 4 0 8 -13 8 -30 0 -25 4 -30 24 -30 l23 0 -1 126 c-1 69 1 130 4 134
3 5 60 8 125 7 l120 -2 2 -115 c0 -63 2 -123 2 -132 1 -12 9 -18 27 -18 14 0
23 4 19 10 -3 6 -1 10 4 10 6 0 11 -4 11 -10 0 -5 10 -10 23 -10 l22 0 0 355
0 355 -22 0 c-17 0 -23 -6 -23 -21 0 -12 -4 -17 -11 -14 -6 4 -8 13 -5 21 4
10 -2 14 -19 14 -28 0 -27 11 -27 -152 l-1 -118 -126 0 -126 0 0 132 c0 130 0
133 -22 136 -23 3 -29 -9 -23 -48 1 -8 -2 -11 -7 -7 -4 5 -8 19 -8 30 0 15 -7
23 -22 25 -24 4 -28 -10 -23 -80 1 -14 -3 -28 -7 -31 -5 -3 -9 20 -9 51 1 52
-1 57 -21 60 -22 3 -23 0 -24 -65 -1 -37 0 -80 1 -95 1 -16 -2 -28 -7 -28 -5
0 -8 42 -8 93 0 88 -1 92 -22 95 -19 3 -23 -1 -24 -25z m541 -60 c0 -20 -3
-33 -7 -29 -10 9 -11 66 -1 66 4 0 8 -16 8 -37z m-363 -48 c0 -36 -2 -63 -6
-59 -8 8 -8 124 0 124 3 0 6 -29 6 -65z m-58 -245 c0 -137 -3 -251 -7 -254 -4
-2 -7 110 -7 250 0 140 3 254 7 254 4 0 7 -112 7 -250z m421 213 c0 -20 -3
-33 -7 -29 -10 9 -11 66 -1 66 4 0 8 -16 8 -37z m-480 -68 c0 -19 -4 -35 -8
-35 -6 0 -9 55 -3 68 5 12 11 -5 11 -33z m118 -10 c-1 -19 -4 -32 -7 -29 -9 8
-7 64 1 64 4 0 7 -16 6 -35z m362 -2 c0 -20 -3 -33 -7 -29 -10 9 -11 66 -1 66
4 0 8 -16 8 -37z m-480 -68 c0 -19 -4 -35 -8 -35 -6 0 -9 55 -3 68 5 12 11 -5
11 -33z m120 -12 c0 -20 -3 -33 -7 -29 -10 9 -11 66 -1 66 4 0 8 -16 8 -37z
m360 0 c0 -20 -3 -33 -7 -29 -10 9 -11 66 -1 66 4 0 8 -16 8 -37z m-117 0
c-34 -2 -93 -2 -130 0 -37 2 -9 3 62 3 72 0 102 -1 68 -3z m-363 -68 c0 -19
-4 -35 -8 -35 -6 0 -9 55 -3 68 5 12 11 -5 11 -33z m118 -10 c-1 -19 -4 -32
-7 -29 -9 8 -7 64 1 64 4 0 7 -16 6 -35z m362 -2 c0 -20 -3 -33 -7 -29 -10 9
-11 66 -1 66 4 0 8 -16 8 -37z m-117 20 c-34 -2 -93 -2 -130 0 -37 2 -9 3 62
3 72 0 102 -1 68 -3z m-364 -148 c0 -52 -3 -95 -7 -95 -5 0 -8 175 -3 188 7
16 10 -14 10 -93z m120 25 c-1 -33 -5 -62 -8 -65 -4 -2 -7 25 -6 61 0 35 3 64
8 64 4 0 6 -27 6 -60z m361 23 c0 -20 -3 -33 -7 -29 -10 9 -11 66 -1 66 4 0 8
-16 8 -37z m0 -80 c0 -20 -3 -33 -7 -29 -10 9 -11 66 -1 66 4 0 8 -16 8 -37z
m-362 -48 c0 -13 -4 -22 -9 -20 -9 6 -8 45 2 45 4 0 7 -11 7 -25z m362 -32 c0
-20 -3 -33 -7 -29 -10 9 -11 66 -1 66 4 0 8 -16 8 -37z"/>
<path d="M2579 3400 c0 -11 -1 -166 -1 -345 0 -179 1 -329 1 -335 1 -5 13 -10
27 -10 14 0 23 4 19 10 -3 6 -1 10 4 10 6 0 11 -4 11 -10 0 -5 10 -10 23 -10
l22 0 0 353 0 352 -23 3 c-17 3 -22 -2 -22 -18 0 -12 -4 -18 -11 -15 -6 4 -8
13 -5 21 4 10 -2 14 -19 14 -18 0 -25 -6 -26 -20z m61 -67 c0 -20 -3 -33 -7
-30 -9 10 -10 67 0 67 4 0 7 -16 7 -37z m-2 -79 c0 -19 -3 -32 -6 -29 -10 9
-11 65 -2 65 5 0 8 -16 8 -36z m2 -81 c0 -20 -3 -33 -7 -30 -9 10 -10 67 0 67
4 0 7 -16 7 -37z m-2 -79 c0 -19 -3 -32 -6 -29 -10 9 -11 65 -2 65 5 0 8 -16
8 -36z m2 -81 c0 -20 -3 -33 -7 -30 -9 10 -10 67 0 67 4 0 7 -16 7 -37z m-2
-79 c0 -19 -3 -32 -6 -29 -10 9 -11 65 -2 65 5 0 8 -16 8 -36z m2 -81 c0 -20
-3 -33 -7 -30 -9 10 -10 67 0 67 4 0 7 -16 7 -37z m-2 -79 c0 -19 -3 -32 -6
-29 -10 9 -11 65 -2 65 5 0 8 -16 8 -36z"/>
<path d="M2740 3067 c0 -339 1 -355 19 -360 10 -2 23 -2 28 2 5 3 9 158 8 356
l0 350 -27 3 -28 3 0 -354z"/>
<path d="M2810 3061 c0 -337 1 -359 18 -356 9 2 22 4 28 4 6 1 10 27 9 66 0
36 3 65 7 65 4 0 7 -27 7 -61 -1 -68 9 -86 37 -71 18 9 19 28 18 344 -1 183
-2 341 -3 351 -1 14 -8 18 -28 15 -25 -3 -28 -7 -25 -35 2 -18 -1 -33 -6 -33
-6 0 -9 16 -8 35 3 32 1 35 -25 35 l-29 0 0 -359z m70 254 c0 -14 -4 -25 -9
-25 -5 0 -8 11 -7 25 1 33 16 33 16 0z m0 -60 c0 -14 -4 -25 -9 -25 -5 0 -8
11 -7 25 1 33 16 33 16 0z m0 -60 c0 -14 -4 -25 -9 -25 -5 0 -8 11 -7 25 1 33
16 33 16 0z m0 -100 c0 -36 -4 -65 -8 -65 -4 0 -8 29 -7 65 0 36 3 65 8 65 4
0 7 -29 7 -65z m0 -100 c0 -14 -4 -25 -9 -25 -5 0 -8 11 -7 25 1 33 16 33 16
0z m0 -60 c0 -14 -4 -25 -9 -25 -5 0 -8 11 -7 25 1 33 16 33 16 0z m0 -60 c0
-14 -4 -25 -9 -25 -5 0 -8 11 -7 25 1 33 16 33 16 0z"/>
<path d="M2950 3418 c0 -2 -1 -162 -3 -356 -1 -229 1 -352 8 -353 6 -1 92 -2
192 -3 161 -1 182 1 186 15 10 37 -6 41 -174 41 -90 -1 -158 2 -152 6 6 4 82
7 167 7 160 -1 174 3 160 40 -5 12 -34 15 -173 16 -91 1 -156 4 -143 7 13 4
88 7 167 7 126 -1 144 1 148 16 9 35 -7 38 -168 41 l-160 3 0 30 0 30 150 0
c136 0 151 2 158 18 4 11 5 23 1 28 -3 5 -76 9 -162 9 -86 0 -152 4 -145 8 6
4 76 7 155 7 120 -1 144 2 149 15 15 36 1 40 -152 40 -82 0 -149 3 -149 8 0 4
69 7 153 7 l152 0 -1 25 -1 25 -154 5 -154 5 0 30 0 30 160 0 c135 -1 161 2
166 15 15 37 2 40 -169 40 -91 0 -163 3 -159 6 3 3 77 6 164 7 87 0 161 5 164
10 4 5 4 18 2 28 -5 18 -17 19 -171 19 -91 0 -162 3 -159 7 4 3 79 7 167 7 88
1 160 4 160 9 0 4 0 16 0 27 0 19 -7 20 -190 20 -104 0 -190 -1 -190 -2z"/>
<path d="M1460 3335 l0 -25 235 0 235 0 0 25 0 25 -235 0 -235 0 0 -25z"/>
<path d="M1460 3275 c0 -24 3 -25 60 -25 l60 0 0 -270 0 -270 25 0 25 0 3 273
2 272 3 -272 2 -273 25 0 25 0 3 273 2 272 3 -272 2 -273 25 0 25 0 3 273 2
272 3 -272 2 -273 25 0 25 0 0 270 0 270 60 0 c57 0 60 1 60 25 l0 25 -235 0
-235 0 0 -25z"/>
<path d="M3634 2604 c-167 -58 -268 -207 -259 -382 5 -120 58 -219 153 -289
199 -145 471 -76 575 146 143 303 -154 635 -469 525z m256 -57 c131 -58 207
-182 198 -326 -12 -219 -225 -365 -438 -299 -38 12 -140 75 -140 87 0 4 -9 17
-20 29 -54 58 -82 190 -60 281 26 111 128 216 236 246 69 18 159 12 224 -18z"/>
<path d="M3672 2554 c-91 -24 -160 -81 -207 -171 -82 -159 -8 -363 159 -439
47 -21 74 -27 133 -27 65 0 83 5 141 34 123 63 190 181 179 316 -16 203 -207
338 -405 287z m98 -43 c0 -4 -18 -7 -39 -8 -54 -2 -118 -32 -163 -76 -41 -41
-78 -129 -78 -187 0 -65 35 -143 86 -190 55 -50 96 -68 163 -72 28 -2 51 -6
51 -10 0 -13 -104 3 -147 22 -186 82 -217 344 -56 467 52 40 183 79 183 54z
m103 -24 c90 -38 157 -143 157 -248 0 -101 -64 -203 -154 -245 -28 -13 -58
-24 -66 -23 -8 0 8 9 36 20 58 22 116 75 147 134 17 31 22 58 22 115 0 85 -24
143 -79 194 -33 30 -104 66 -136 69 -11 1 -20 5 -20 10 0 10 26 3 93 -26z m-9
-61 c151 -88 137 -316 -24 -384 -43 -18 -130 -17 -173 2 -128 58 -167 235 -74
339 27 30 76 62 83 54 3 -3 -8 -13 -25 -21 -31 -16 -72 -65 -85 -101 -29 -75
-11 -159 46 -216 48 -48 73 -59 142 -60 150 -4 249 149 187 287 -35 77 -116
123 -206 118 -37 -2 -43 -1 -25 5 40 14 109 3 154 -23z m-43 -45 c79 -30 115
-150 66 -221 -62 -94 -195 -98 -259 -8 -32 46 -32 130 1 177 43 60 118 81 192
52z"/>
<path d="M859 2576 c0 -11 -1 -172 -1 -356 -1 -357 -4 -337 41 -331 5 0 9 24
7 51 -1 28 2 50 7 50 5 0 8 -15 7 -32 -4 -64 -1 -76 18 -73 9 2 20 4 23 4 3 1
5 130 4 289 0 158 1 293 3 300 2 6 8 12 14 12 5 0 6 -5 3 -10 -9 -14 -10 -574
-1 -588 8 -13 42 -8 38 7 -3 16 15 14 21 -3 3 -8 14 -13 24 -12 16 3 18 14 20
92 1 49 2 93 2 97 1 4 25 7 55 6 l55 -2 25 -83 c14 -45 26 -87 26 -93 0 -6 5
-12 10 -12 6 -1 16 -2 23 -3 24 -4 26 5 10 50 -8 25 -13 47 -11 50 3 2 11 -16
18 -41 7 -24 18 -49 25 -55 18 -15 48 -1 40 19 -19 45 -45 125 -44 135 0 6 11
-19 24 -55 31 -91 42 -108 65 -106 24 2 24 3 5 57 -8 24 -14 45 -11 47 2 2 12
-20 22 -48 14 -39 25 -53 42 -56 12 -1 22 0 22 5 0 4 -16 57 -36 117 l-36 110
45 46 c90 94 92 245 6 343 -22 24 -61 55 -87 67 -45 22 -59 23 -284 25 -237 2
-238 2 -239 -20z m101 -33 c-14 -3 -31 -10 -37 -15 -10 -8 -13 -6 -13 6 0 12
9 16 38 15 27 -1 30 -3 12 -6z m60 3 c0 -2 -7 -6 -15 -10 -8 -3 -15 -1 -15 4
0 6 7 10 15 10 8 0 15 -2 15 -4z m78 -1 c-9 -9 -68 -12 -68 -4 0 5 17 9 37 9
20 0 34 -2 31 -5z m121 1 c-8 -8 -109 -12 -109 -4 0 4 26 8 57 8 31 0 54 -2
52 -4z m41 0 c0 -2 -7 -6 -15 -10 -8 -3 -15 -1 -15 4 0 6 7 10 15 10 8 0 15
-2 15 -4z m30 -6 c0 -5 -4 -10 -10 -10 -5 0 -10 5 -10 10 0 6 5 10 10 10 6 0
10 -4 10 -10z m131 -60 c53 -53 69 -101 58 -173 -9 -61 -46 -117 -96 -148 -35
-22 -50 -24 -168 -25 l-130 -2 130 7 c116 5 134 9 165 31 62 43 88 94 89 174
1 65 -35 127 -93 161 -23 14 -50 25 -59 25 -10 0 -17 4 -17 9 0 21 79 -17 121
-59z m-501 15 c0 -8 -4 -15 -8 -15 -5 0 -9 7 -9 15 0 8 4 15 9 15 4 0 8 -7 8
-15z m150 -12 c0 -10 -57 -9 -67 0 -3 4 10 7 30 7 21 0 37 -3 37 -7z m50 3 c0
-3 -4 -8 -10 -11 -5 -3 -10 -1 -10 4 0 6 5 11 10 11 6 0 10 -2 10 -4z m70 -3
c0 -5 -13 -8 -30 -8 -16 0 -30 3 -30 8 0 4 14 7 30 7 17 0 30 -3 30 -7z m160
-19 c95 -56 95 -188 0 -251 -30 -21 -44 -23 -149 -21 l-116 2 120 5 c93 5 127
10 149 24 34 23 56 73 56 127 0 33 -7 47 -40 80 -22 22 -48 41 -57 41 -10 1
-37 3 -61 4 -23 1 -45 5 -49 9 -15 15 118 -3 147 -20z m-432 -39 c0 -25 -4
-42 -7 -39 -9 9 -7 84 2 84 4 0 6 -20 5 -45z m119 -47 c-2 -13 -4 -5 -4 17 -1
22 1 32 4 23 2 -10 2 -28 0 -40z m119 44 c-9 -8 -106 -10 -106 -2 0 4 25 8 55
8 31 -1 53 -3 51 -6z m174 -17 c30 -27 40 -67 25 -102 -20 -47 -42 -54 -162
-50 l-108 3 111 2 c95 2 113 5 132 22 28 26 29 79 3 111 -16 20 -28 23 -90 23
-39 0 -71 4 -71 8 0 16 141 1 160 -17z m-410 -74 c0 -22 -3 -42 -8 -45 -4 -2
-7 16 -7 40 0 24 3 44 8 44 4 0 7 -18 7 -39z m373 30 c5 0 7 -11 5 -23 -3 -22
-8 -23 -102 -26 -103 -3 -118 2 -109 38 4 16 15 18 101 15 54 -1 101 -3 105
-4z m-255 -36 c0 -13 -4 -22 -9 -20 -9 6 -8 45 2 45 4 0 7 -11 7 -25z m0 -60
c0 -13 -4 -22 -9 -20 -9 6 -8 45 2 45 4 0 7 -11 7 -25z m-118 -10 c0 -8 -4
-15 -8 -15 -5 0 -9 7 -9 15 0 8 4 15 9 15 4 0 8 -7 8 -15z m-2 -70 c0 -25 -4
-42 -7 -39 -9 9 -7 84 2 84 4 0 6 -20 5 -45z m120 -52 c-1 -101 -5 -89 -10 30
-2 37 0 67 5 67 4 0 6 -44 5 -97z m-118 -42 c0 -22 -3 -42 -8 -45 -4 -2 -7 16
-7 40 0 24 3 44 8 44 4 0 7 -18 7 -39z m474 -66 c4 -19 3 -25 -3 -15 -4 8 -11
29 -15 45 -4 19 -3 25 3 15 4 -8 11 -28 15 -45z m-126 14 c-3 -8 -7 -3 -11 10
-4 17 -3 21 5 13 5 -5 8 -16 6 -23z m-348 -24 c0 -8 -4 -15 -8 -15 -5 0 -9 7
-9 15 0 8 4 15 9 15 4 0 8 -7 8 -15z m118 -10 c0 -13 -4 -22 -9 -20 -9 6 -8
45 2 45 4 0 7 -11 7 -25z m0 -60 c0 -13 -4 -22 -9 -20 -9 6 -8 45 2 45 4 0 7
-11 7 -25z"/>
<path d="M1579 2583 c-1 -24 -1 -641 0 -675 1 -19 6 -25 19 -23 9 2 20 4 25 4
4 1 6 160 5 354 l-3 352 -22 3 c-17 2 -23 -2 -24 -15z"/>
<path d="M1640 2240 c0 -336 1 -358 18 -355 9 2 20 4 24 4 4 1 7 160 5 354
l-2 352 -22 1 -23 1 0 -357z"/>
<path d="M1702 2241 c3 -348 3 -356 23 -356 20 0 20 7 20 355 l0 355 -23 1
-22 1 2 -356z"/>
<path d="M1762 2242 c3 -349 3 -357 23 -357 19 0 20 7 22 125 1 69 2 130 2
135 1 7 45 11 124 10 l122 0 2 -115 c1 -63 2 -124 3 -136 0 -15 6 -20 23 -19
l22 2 0 354 0 354 -22 3 c-22 3 -23 1 -24 -80 0 -46 -1 -107 -2 -137 l-2 -55
-110 -1 c-60 0 -117 2 -125 5 -12 4 -15 28 -15 134 0 126 0 129 -23 132 l-22
4 2 -358z m88 30 c0 -4 -9 -8 -19 -8 -11 0 -17 4 -15 8 3 4 12 8 20 8 8 0 14
-4 14 -8z m60 0 c0 -10 -38 -13 -44 -3 -3 3 6 8 20 9 13 1 24 -2 24 -6z m118
1 c-21 -2 -55 -2 -75 0 -21 2 -4 4 37 4 41 0 58 -2 38 -4z m-118 -63 c0 -8
-88 -5 -96 3 -3 3 18 5 45 4 28 0 51 -3 51 -7z m70 -1 c0 -4 -12 -5 -27 -3
-39 7 -41 13 -4 12 17 -1 31 -5 31 -9z m73 1 c-8 -8 -63 -6 -63 2 0 5 15 7 34
5 19 -1 32 -4 29 -7z"/>
<path d="M2122 2241 c3 -348 3 -356 23 -356 20 0 20 7 20 355 l0 355 -23 1
-22 1 2 -356z"/>
<path d="M2182 2241 c3 -348 3 -356 23 -356 20 0 20 7 20 355 l0 355 -23 1
-22 1 2 -356z"/>
<path d="M2242 2241 c3 -348 3 -356 23 -356 20 0 20 7 20 355 l0 355 -23 1
-22 1 2 -356z"/>
<path d="M2350 2558 c-4 -580 -2 -661 15 -671 12 -6 20 -6 24 2 4 6 7 77 6
156 0 80 3 145 7 145 4 0 6 -67 5 -149 -2 -132 0 -151 14 -154 27 -7 38 6 35
43 -2 19 1 44 5 55 5 13 8 0 8 -40 l1 -61 50 1 c36 0 51 4 55 15 5 19 5 660
-1 680 -2 9 -13 16 -24 17 -23 2 -22 4 -21 -131 1 -50 -1 -87 -5 -83 -3 3 -7
52 -8 109 -1 99 -2 103 -23 106 -20 3 -23 -1 -23 -32 0 -20 -5 -36 -11 -36 -6
0 -8 8 -4 19 8 26 -2 47 -25 48 -23 2 -21 15 -22 -190 0 -82 -2 -146 -6 -143
-3 4 -7 77 -7 164 -1 86 -3 160 -4 165 0 4 -10 7 -21 7 -17 0 -20 -7 -20 -42z
m120 -153 c0 -63 -3 -115 -7 -115 -5 0 -7 46 -6 102 1 124 2 128 8 128 3 0 5
-52 5 -115z m60 -76 c0 -22 -4 -38 -8 -35 -5 3 -8 15 -6 28 1 13 3 29 3 36 1
6 3 12 6 12 3 0 5 -18 5 -41z m-60 -144 c0 -52 -3 -95 -7 -95 -5 0 -7 37 -6
82 1 103 2 108 8 108 3 0 5 -43 5 -95z m60 85 c0 -5 -5 -10 -11 -10 -5 0 -7 5
-4 10 3 6 8 10 11 10 2 0 4 -4 4 -10z m-120 -47 c0 -14 -3 -23 -7 -19 -10 10
-11 46 -1 46 4 0 8 -12 8 -27z m120 -30 c0 -31 -3 -54 -6 -50 -9 9 -8 107 1
107 3 0 5 -25 5 -57z m0 -104 c0 -22 -4 -38 -8 -35 -5 3 -8 15 -6 28 1 13 3
29 3 36 1 6 3 12 6 12 3 0 5 -18 5 -41z m-60 -44 c0 -19 -4 -35 -10 -35 -5 0
-8 10 -6 23 3 12 5 28 5 35 2 28 11 9 11 -23z m60 -15 c0 -5 -5 -10 -11 -10
-5 0 -7 5 -4 10 3 6 8 10 11 10 2 0 4 -4 4 -10z m0 -77 c0 -31 -3 -54 -6 -50
-9 9 -8 107 1 107 3 0 5 -25 5 -57z"/>
<path d="M2639 2591 c0 -3 -1 -163 -2 -356 l0 -349 25 -1 25 -2 -1 169 c-1 92
3 168 7 168 5 0 8 -21 7 -47 -1 -27 -1 -102 -1 -169 1 -119 1 -121 24 -119 16
2 21 8 20 24 -2 11 2 21 9 21 6 0 8 -3 5 -6 -11 -12 12 -42 30 -40 16 3 18 15
17 114 0 62 2 112 5 112 3 0 7 -47 8 -105 1 -58 5 -110 8 -114 3 -5 13 -8 23
-7 15 3 17 18 17 164 0 89 3 158 6 154 3 -4 47 -76 98 -159 51 -84 96 -153 99
-154 4 0 15 -2 25 -4 9 -2 17 2 17 9 0 7 -77 138 -171 292 -95 153 -190 309
-212 345 -31 52 -45 67 -63 67 -13 0 -24 -3 -25 -7z m65 -117 c3 -9 4 -19 2
-23 -3 -4 -6 -28 -7 -54 -4 -73 -15 -55 -14 23 0 68 7 86 19 54z m60 -99 c10
-15 12 -24 5 -23 -8 2 -12 -18 -12 -65 0 -37 -2 -65 -6 -62 -5 5 -10 175 -5
175 1 0 9 -11 18 -25z m-65 -90 c-3 -72 -16 -72 -15 0 1 30 5 55 9 55 4 0 7
-25 6 -55z m128 -30 c-8 -7 -13 -37 -12 -73 0 -34 -2 -59 -5 -56 -3 3 -5 43
-5 89 -1 79 0 83 17 68 14 -12 15 -18 5 -28z m-69 -85 c0 -22 -3 -42 -7 -44
-4 -3 -7 15 -7 40 0 24 3 44 7 44 4 0 7 -18 7 -40z m2 -75 c0 -8 -4 -15 -8
-15 -5 0 -9 7 -9 15 0 8 4 15 9 15 4 0 8 -7 8 -15z m0 -40 c0 -8 -2 -15 -4
-15 -2 0 -6 7 -10 15 -3 8 -1 15 4 15 6 0 10 -7 10 -15z m0 -40 c0 -8 -4 -15
-8 -15 -5 0 -9 7 -9 15 0 8 4 15 9 15 4 0 8 -7 8 -15z m0 -52 c0 -14 -3 -23
-7 -19 -10 10 -11 46 -1 46 4 0 8 -12 8 -27z"/>
<path d="M2714 2588 c-3 -4 19 -47 49 -95 30 -48 97 -158 149 -243 201 -328
224 -363 242 -366 33 -5 27 24 -18 95 -25 39 -46 73 -46 76 0 2 -24 42 -53 87
-29 46 -56 90 -60 98 -4 8 -38 65 -76 125 -39 61 -86 138 -107 172 -26 43 -43
61 -56 60 -11 -1 -22 -5 -24 -9z"/>
<path d="M2786 2591 c-9 -14 416 -704 435 -706 38 -6 38 12 0 72 -22 33 -108
175 -193 314 -85 140 -166 271 -179 292 -23 35 -51 48 -63 28z"/>
<path d="M2861 2591 c-11 -7 0 -31 51 -112 36 -57 104 -167 150 -244 216 -357
219 -362 251 -349 11 4 13 75 13 356 l-1 351 -22 3 c-15 3 -23 -1 -23 -11 0
-8 -4 -15 -10 -15 -5 0 -7 6 -4 13 3 8 -5 13 -21 15 l-25 2 0 -262 c0 -228 -2
-259 -14 -242 -8 10 -11 23 -6 29 4 5 7 113 6 239 l-1 229 -22 3 c-19 3 -23
-1 -23 -21 0 -14 -4 -25 -8 -25 -5 0 -8 10 -8 21 1 15 -6 23 -21 25 -26 4 -25
15 -25 -198 l0 -128 -66 108 c-36 59 -81 133 -100 165 -34 57 -45 64 -71 48z
m419 -116 c0 -47 -3 -85 -7 -85 -5 0 -7 37 -6 82 2 93 1 88 8 88 3 0 5 -38 5
-85z m-121 -50 c0 -63 -3 -115 -7 -115 -4 0 -6 51 -5 112 1 123 1 118 8 118 2
0 4 -52 4 -115z m121 -70 c0 -14 -4 -25 -8 -25 -7 0 -8 31 -3 48 4 11 11 -3
11 -23z m0 -120 c0 -47 -3 -85 -7 -85 -5 0 -7 37 -6 82 2 93 1 88 8 88 3 0 5
-38 5 -85z m-122 5 c-2 -52 -5 -58 -15 -43 -16 21 -17 33 -2 33 6 0 8 12 6 29
-5 27 -1 41 10 41 2 0 3 -27 1 -60z m122 -125 c0 -14 -4 -25 -8 -25 -7 0 -8
31 -3 48 4 11 11 -3 11 -23z m0 -87 c-1 -51 -1 -52 -15 -28 -9 17 -10 27 -3
31 6 4 8 14 5 22 -5 13 0 27 10 27 2 0 3 -24 3 -52z"/>
</g>
</svg>
